<mxfile host="app.diagrams.net" modified="2022-12-23T01:56:16.855Z" agent="5.0 (Macintosh; Intel Mac OS X 10_14_6) AppleWebKit/537.36 (KHTML, like Gecko) Chrome/108.0.0.0 Safari/537.36" version="20.6.0" etag="jcaTg9Zzulg377wN4ajo" type="github">
  <diagram id="3Igkdzod0H90Zgw1er71" name="第 1 页">
    <mxGraphModel dx="2547" dy="1075" grid="1" gridSize="10" guides="1" tooltips="1" connect="1" arrows="1" fold="1" page="1" pageScale="1" pageWidth="827" pageHeight="1169" math="0" shadow="0">
      <root>
        <mxCell id="0" />
        <mxCell id="1" parent="0" />
        <mxCell id="178ps9DXgOEks0OwSUOY-23" value="" style="endArrow=classic;html=1;rounded=0;fontSize=15;strokeWidth=2;sketch=1;" edge="1" parent="1">
          <mxGeometry width="50" height="50" relative="1" as="geometry">
            <mxPoint x="160" y="390" as="sourcePoint" />
            <mxPoint x="160" y="790" as="targetPoint" />
          </mxGeometry>
        </mxCell>
        <mxCell id="178ps9DXgOEks0OwSUOY-21" value="" style="endArrow=classic;html=1;rounded=0;fontSize=15;strokeWidth=2;sketch=1;" edge="1" parent="1">
          <mxGeometry width="50" height="50" relative="1" as="geometry">
            <mxPoint x="-320" y="390" as="sourcePoint" />
            <mxPoint x="-320" y="790" as="targetPoint" />
          </mxGeometry>
        </mxCell>
        <mxCell id="178ps9DXgOEks0OwSUOY-9" value="任务1" style="rounded=1;whiteSpace=wrap;html=1;strokeWidth=2;fillWeight=4;hachureGap=8;hachureAngle=45;fillColor=#dae8fc;sketch=0;fontStyle=1;fontSize=15;strokeColor=#6c8ebf;" vertex="1" parent="1">
          <mxGeometry x="-380" y="430" width="120" height="60" as="geometry" />
        </mxCell>
        <mxCell id="178ps9DXgOEks0OwSUOY-15" value="任务2" style="rounded=1;whiteSpace=wrap;html=1;strokeWidth=2;fillWeight=4;hachureGap=8;hachureAngle=45;fillColor=#d5e8d4;sketch=0;strokeColor=#82b366;fontStyle=1;fontSize=15;" vertex="1" parent="1">
          <mxGeometry x="-380" y="510" width="120" height="60" as="geometry" />
        </mxCell>
        <mxCell id="178ps9DXgOEks0OwSUOY-16" value="任务1" style="rounded=1;whiteSpace=wrap;html=1;strokeWidth=2;fillWeight=4;hachureGap=8;hachureAngle=45;fillColor=#dae8fc;sketch=0;fontStyle=1;fontSize=15;strokeColor=#6c8ebf;" vertex="1" parent="1">
          <mxGeometry x="-380" y="590" width="120" height="60" as="geometry" />
        </mxCell>
        <mxCell id="178ps9DXgOEks0OwSUOY-18" value="任务2" style="rounded=1;whiteSpace=wrap;html=1;strokeWidth=2;fillWeight=4;hachureGap=8;hachureAngle=45;fillColor=#d5e8d4;sketch=0;strokeColor=#82b366;fontStyle=1;fontSize=15;" vertex="1" parent="1">
          <mxGeometry x="-380" y="670" width="120" height="60" as="geometry" />
        </mxCell>
        <mxCell id="178ps9DXgOEks0OwSUOY-19" value="任务1" style="rounded=1;whiteSpace=wrap;html=1;strokeWidth=2;fillWeight=4;hachureGap=8;hachureAngle=45;fillColor=#dae8fc;sketch=0;fontStyle=1;fontSize=15;strokeColor=#6c8ebf;" vertex="1" parent="1">
          <mxGeometry x="100" y="430" width="120" height="320" as="geometry" />
        </mxCell>
        <mxCell id="178ps9DXgOEks0OwSUOY-22" value="" style="endArrow=classic;html=1;rounded=0;fontSize=15;strokeWidth=2;sketch=1;" edge="1" parent="1">
          <mxGeometry width="50" height="50" relative="1" as="geometry">
            <mxPoint x="-160" y="390" as="sourcePoint" />
            <mxPoint x="-160" y="790" as="targetPoint" />
          </mxGeometry>
        </mxCell>
        <mxCell id="178ps9DXgOEks0OwSUOY-24" value="" style="endArrow=classic;html=1;rounded=0;fontSize=15;strokeWidth=2;sketch=1;startArrow=none;" edge="1" parent="1" source="178ps9DXgOEks0OwSUOY-20">
          <mxGeometry width="50" height="50" relative="1" as="geometry">
            <mxPoint x="320" y="390" as="sourcePoint" />
            <mxPoint x="320" y="790" as="targetPoint" />
          </mxGeometry>
        </mxCell>
        <mxCell id="178ps9DXgOEks0OwSUOY-20" value="任务2" style="rounded=1;whiteSpace=wrap;html=1;strokeWidth=2;fillWeight=4;hachureGap=8;hachureAngle=45;fillColor=#d5e8d4;sketch=0;strokeColor=#82b366;fontStyle=1;fontSize=15;" vertex="1" parent="1">
          <mxGeometry x="260" y="430" width="120" height="320" as="geometry" />
        </mxCell>
        <mxCell id="178ps9DXgOEks0OwSUOY-25" value="" style="endArrow=none;html=1;rounded=0;fontSize=15;strokeWidth=2;sketch=1;" edge="1" parent="1" target="178ps9DXgOEks0OwSUOY-20">
          <mxGeometry width="50" height="50" relative="1" as="geometry">
            <mxPoint x="320" y="390" as="sourcePoint" />
            <mxPoint x="320" y="790" as="targetPoint" />
          </mxGeometry>
        </mxCell>
        <mxCell id="178ps9DXgOEks0OwSUOY-26" value="" style="endArrow=none;dashed=1;html=1;rounded=0;sketch=1;strokeWidth=2;fontSize=15;" edge="1" parent="1">
          <mxGeometry width="50" height="50" relative="1" as="geometry">
            <mxPoint y="860" as="sourcePoint" />
            <mxPoint y="200" as="targetPoint" />
          </mxGeometry>
        </mxCell>
        <mxCell id="178ps9DXgOEks0OwSUOY-27" value="处理器1" style="text;strokeColor=none;fillColor=none;html=1;fontSize=24;fontStyle=1;verticalAlign=middle;align=center;sketch=0;" vertex="1" parent="1">
          <mxGeometry x="-370" y="320" width="100" height="40" as="geometry" />
        </mxCell>
        <mxCell id="178ps9DXgOEks0OwSUOY-28" value="处理器2" style="text;strokeColor=none;fillColor=none;html=1;fontSize=24;fontStyle=1;verticalAlign=middle;align=center;sketch=0;" vertex="1" parent="1">
          <mxGeometry x="-209" y="320" width="100" height="40" as="geometry" />
        </mxCell>
        <mxCell id="178ps9DXgOEks0OwSUOY-29" value="处理器1" style="text;strokeColor=none;fillColor=none;html=1;fontSize=24;fontStyle=1;verticalAlign=middle;align=center;sketch=0;" vertex="1" parent="1">
          <mxGeometry x="110" y="320" width="100" height="40" as="geometry" />
        </mxCell>
        <mxCell id="178ps9DXgOEks0OwSUOY-30" value="处理器2" style="text;strokeColor=none;fillColor=none;html=1;fontSize=24;fontStyle=1;verticalAlign=middle;align=center;sketch=0;" vertex="1" parent="1">
          <mxGeometry x="271" y="320" width="100" height="40" as="geometry" />
        </mxCell>
        <mxCell id="178ps9DXgOEks0OwSUOY-31" value="并发" style="text;strokeColor=none;fillColor=none;html=1;fontSize=24;fontStyle=1;verticalAlign=middle;align=center;sketch=0;" vertex="1" parent="1">
          <mxGeometry x="-280" y="240" width="100" height="40" as="geometry" />
        </mxCell>
        <mxCell id="178ps9DXgOEks0OwSUOY-32" value="并行" style="text;strokeColor=none;fillColor=none;html=1;fontSize=24;fontStyle=1;verticalAlign=middle;align=center;sketch=0;" vertex="1" parent="1">
          <mxGeometry x="190" y="240" width="100" height="40" as="geometry" />
        </mxCell>
      </root>
    </mxGraphModel>
  </diagram>
</mxfile>
